<svg width="20" height="15" viewBox="0 0 20 15" fill="none" xmlns="http://www.w3.org/2000/svg">
<rect x="1" y="1" width="18" height="13" rx="2" fill="#EA0606"/>
<path d="M1 7.5C1 4.43606 1 2.90369 2.0548 1.95225C3.1087 1 4.8061 1 8.2 1H11.8C15.1939 1 16.8913 1 17.9452 1.95225C19 2.90369 19 4.43606 19 7.5C19 10.5639 19 12.0963 17.9452 13.0477C16.8913 14 15.1939 14 11.8 14H8.2C4.8061 14 3.1087 14 2.0548 13.0477C1 12.0963 1 10.5639 1 7.5Z" stroke="black" stroke-width="1.5"/>
<path d="M8.2 10.75H4.6M11.8 10.75H10.45M1 5.875H19" stroke="black" stroke-width="1.5" stroke-linecap="round"/>
</svg>
