<svg width="20" height="15" viewBox="0 0 20 15" fill="none" xmlns="http://www.w3.org/2000/svg">
<rect x="0.5" y="1.5" width="19" height="12" fill="#1AC72C" stroke="black"/>
<path d="M9.47727 13.0909V2.18182H10.1761V13.0909H9.47727ZM11.8295 5.45455C11.7784 5.02273 11.571 4.6875 11.2074 4.44886C10.8438 4.21023 10.3977 4.09091 9.86932 4.09091C9.48295 4.09091 9.14489 4.15341 8.85511 4.27841C8.56818 4.40341 8.34375 4.57528 8.18182 4.79403C8.02273 5.01278 7.94318 5.26136 7.94318 5.53977C7.94318 5.77273 7.99858 5.97301 8.10938 6.14062C8.22301 6.3054 8.3679 6.44318 8.54403 6.55398C8.72017 6.66193 8.90483 6.75142 9.09801 6.82244C9.29119 6.89062 9.46875 6.94602 9.63068 6.98864L10.517 7.22727C10.7443 7.28693 10.9972 7.36932 11.2756 7.47443C11.5568 7.57955 11.8253 7.72301 12.081 7.90483C12.3395 8.08381 12.5526 8.31392 12.7202 8.59517C12.8878 8.87642 12.9716 9.22159 12.9716 9.63068C12.9716 10.1023 12.848 10.5284 12.6009 10.9091C12.3565 11.2898 11.9986 11.5923 11.527 11.8168C11.0582 12.0412 10.4886 12.1534 9.81818 12.1534C9.19318 12.1534 8.65199 12.0526 8.1946 11.8509C7.74006 11.6491 7.3821 11.3679 7.12074 11.0071C6.86222 10.6463 6.71591 10.2273 6.68182 9.75H7.77273C7.80114 10.0795 7.91193 10.3523 8.10511 10.5682C8.30114 10.7812 8.5483 10.9403 8.84659 11.0455C9.14773 11.1477 9.47159 11.1989 9.81818 11.1989C10.2216 11.1989 10.5838 11.1335 10.9048 11.0028C11.2259 10.8693 11.4801 10.6847 11.6676 10.4489C11.8551 10.2102 11.9489 9.93182 11.9489 9.61364C11.9489 9.32386 11.8679 9.08807 11.706 8.90625C11.544 8.72443 11.331 8.5767 11.0668 8.46307C10.8026 8.34943 10.517 8.25 10.2102 8.16477L9.13636 7.85795C8.45455 7.66193 7.91477 7.3821 7.51705 7.01847C7.11932 6.65483 6.92045 6.17898 6.92045 5.59091C6.92045 5.10227 7.05256 4.67614 7.31676 4.3125C7.58381 3.94602 7.94176 3.66193 8.39062 3.46023C8.84233 3.25568 9.34659 3.15341 9.90341 3.15341C10.4659 3.15341 10.9659 3.25426 11.4034 3.45597C11.8409 3.65483 12.1875 3.92756 12.4432 4.27415C12.7017 4.62074 12.8381 5.0142 12.8523 5.45455H11.8295Z" fill="black"/>
</svg>
