<svg width="18" height="17" viewBox="0 0 18 17" fill="none" xmlns="http://www.w3.org/2000/svg">
<path d="M12.1012 12.343L9.39248 9.78384C9.29349 9.69031 9.1765 9.67331 9.11351 9.67331C9.05052 9.67331 8.93353 9.69031 8.83454 9.78384L6.11687 12.3515C5.8109 12.6406 5.33396 13.1082 3.74115 13.1082L7.07975 16.254C7.58594 16.7317 8.27211 17 8.98752 17C9.70294 17 10.3891 16.7317 10.8953 16.254L14.2429 13.0997C13.424 13.0997 12.7401 12.9467 12.1012 12.343ZM6.11687 4.64848L8.83454 7.21616C8.90653 7.28418 9.01452 7.32669 9.11351 7.32669C9.2125 7.32669 9.32048 7.28418 9.39248 7.21616L12.0832 4.67399C12.7221 4.04482 13.451 3.90029 14.2699 3.90029L10.9223 0.745953C10.4161 0.268296 9.72994 0 9.01452 0C8.2991 0 7.61294 0.268296 7.10675 0.745953L3.76815 3.89178C5.35196 3.89178 5.8379 4.38491 6.11687 4.64848Z" fill="#589F91"/>
<path d="M17.1946 6.6724L15.1698 4.75089H14.0359C13.55 4.75089 13.0641 4.93794 12.7311 5.26953L10.0314 7.8202C9.77946 8.05826 9.4465 8.1773 9.11354 8.1773C8.77067 8.17273 8.4425 8.04506 8.19565 7.8202L5.47797 5.24402C5.13601 4.92094 4.66807 4.73389 4.17313 4.73389H2.85028L0.78953 6.6894C0.283969 7.16766 0 7.81595 0 8.49188C0 9.16781 0.283969 9.8161 0.78953 10.2944L2.85028 12.2499H4.18213C4.66807 12.2499 5.13601 12.0628 5.48697 11.7397L8.20465 9.17206C8.45662 8.934 8.78958 8.81496 9.12254 8.81496C9.4555 8.81496 9.78846 8.934 10.0404 9.17206L12.7491 11.7312C13.0911 12.0543 13.559 12.2414 14.0539 12.2414H15.1878L17.2126 10.3199C17.7203 9.833 18.0033 9.17607 18 8.49262C17.9966 7.80917 17.707 7.15477 17.1946 6.6724Z" fill="#589F91"/>
</svg>
